<svg width="262" height="38" viewBox="0 0 262 38" fill="none" xmlns="http://www.w3.org/2000/svg">
<path d="M29.3866 29.8364C21.8842 29.8364 14.8196 28.4556 9.49547 25.9501C3.99732 23.3653 0.971802 19.8608 0.971802 16.0821C0.971802 12.3035 3.99988 8.80148 9.49547 6.21407C14.8196 3.70863 21.8842 2.32783 29.3866 2.32783C36.8889 2.32783 43.9536 3.70863 49.2777 6.21407C54.7758 8.80148 57.8014 12.306 57.8014 16.0821C57.8014 19.8582 54.7733 23.3627 49.2777 25.9501C43.9536 28.4556 36.8889 29.8364 29.3866 29.8364ZM17.1514 16.8045C17.5328 23.314 22.885 28.3966 29.3866 28.3966C35.8881 28.3966 41.2404 23.314 41.6218 16.8045H32.3916L29.4608 23.9058L26.53 16.8045H17.1514ZM43.1089 16.8045C42.8862 21.0674 40.6926 24.9741 37.1859 27.4001C44.079 25.5607 48.7453 21.4567 49.1779 16.8045H43.1064H43.1089ZM9.59274 16.8045C10.0279 21.4567 14.6941 25.5607 21.5873 27.4001C18.0806 24.9741 15.8869 21.0674 15.6642 16.8045H9.59274ZM50.6215 16.8045C50.3092 20.7061 47.4859 24.2824 42.812 26.7417C44.957 26.173 46.9202 25.4685 48.6659 24.6487C53.2272 22.502 55.9405 19.7224 56.3193 16.8045H50.6215ZM2.45385 16.8045C2.83524 19.7199 5.54591 22.502 10.1072 24.6487C11.8529 25.4711 13.8162 26.173 15.9612 26.7417C11.2847 24.2824 8.46137 20.7061 8.15165 16.8045H2.45385ZM25.327 10.1182L29.4608 20.1323L33.5947 10.1182H35.1509L32.9855 15.3622H41.6192C41.2378 8.85272 35.8856 3.77012 29.384 3.77012C22.8825 3.77012 17.5302 8.85272 17.1489 15.3622H25.9336L23.7681 10.1182H25.3244H25.327ZM56.3168 15.3622C55.9379 12.4469 53.2247 9.66481 48.6634 7.51802C46.9177 6.69825 44.9544 5.99376 42.8094 5.42504C47.4859 7.88436 50.3067 11.4606 50.619 15.3622H56.3168ZM49.1779 15.3622C48.7427 10.71 44.079 6.60602 37.1833 4.76666C40.69 7.19268 42.8837 11.0994 43.1064 15.3622H49.1779ZM15.6642 15.3622C15.8869 11.0994 18.0806 7.19268 21.5873 4.76666C14.6916 6.60602 10.0279 10.7075 9.59274 15.3622H15.6642ZM8.15165 15.3622C8.46137 11.4606 11.2847 7.88436 15.9612 5.42504C13.8162 5.99376 11.8504 6.69825 10.1072 7.51802C5.54591 9.66481 2.83268 12.4469 2.45385 15.3622H8.15165Z" fill="white"/>
<path d="M69.4068 29.8364L66.2841 2.62244H72.2634L74.0526 23.0528H74.1294L84.45 2.62244H90.6571L76.149 29.8364H69.4068Z" fill="white"/>
<path d="M87.3449 13.0105C87.9285 12.1856 88.6401 11.517 89.4771 11.0098C90.3141 10.5025 91.2535 10.1387 92.2953 9.92355C93.3371 9.70836 94.4147 9.60077 95.5332 9.60077C96.4214 9.60077 97.348 9.66481 98.313 9.79034C99.278 9.91843 100.166 10.1644 100.978 10.5333C101.789 10.9022 102.457 11.4222 102.977 12.096C103.496 12.7697 103.745 13.6663 103.719 14.7833C103.719 15.7235 103.578 16.8276 103.299 18.0982L101.548 26.0244C101.446 26.3805 101.377 26.8186 101.339 27.3386C101.3 27.8587 101.282 28.3096 101.282 28.6913C101.282 29.0217 101.346 29.4034 101.472 29.8338H96.0631V27.8894C95.3259 28.7271 94.4249 29.3445 93.3601 29.739C92.2927 30.1336 91.1895 30.3308 90.0479 30.3308C88.9805 30.3308 88.0488 30.1899 87.2476 29.9107C86.449 29.6314 85.7809 29.2574 85.2485 28.786C84.7161 28.3147 84.3219 27.769 84.0685 27.1465C83.8151 26.524 83.6871 25.8707 83.6871 25.1842C83.6871 23.2782 84.3399 21.7539 85.6478 20.6114C86.9558 19.4688 88.8013 18.7566 91.1895 18.4774C92.4591 18.3262 93.5623 18.211 94.5017 18.1341C95.4411 18.0573 96.2218 17.9368 96.8438 17.7729C97.4658 17.6089 97.9291 17.3681 98.2337 17.0479C98.5383 16.7302 98.6893 16.2537 98.6893 15.6184C98.6893 15.1112 98.5741 14.7039 98.3463 14.399C98.1185 14.0942 97.8318 13.8533 97.4888 13.674C97.1458 13.4973 96.7772 13.3743 96.3856 13.3128C95.9914 13.2488 95.6177 13.218 95.2619 13.218C94.2969 13.218 93.4343 13.4537 92.6715 13.9225C91.9088 14.3939 91.4404 15.1214 91.2637 16.1129H86.1982C86.3748 14.8678 86.7562 13.8329 87.3398 13.0054M95.4129 21.1237C94.6246 21.2134 93.8387 21.2826 93.0529 21.3338C92.5436 21.385 92.0496 21.467 91.5683 21.5823C91.0846 21.6976 90.6596 21.8692 90.2936 22.0972C89.925 22.3252 89.6281 22.6377 89.3977 23.0297C89.1699 23.4242 89.0547 23.9263 89.0547 24.536C89.0547 25.2738 89.3517 25.8246 89.9506 26.1935C90.547 26.5624 91.2381 26.7469 92.0265 26.7469C92.8635 26.7469 93.5674 26.6136 94.1408 26.3472C94.7116 26.0808 95.1928 25.7375 95.587 25.3174C95.9812 24.8972 96.2909 24.4233 96.5213 23.8879C96.7491 23.355 96.941 22.8196 97.0921 22.2868L97.6245 20.3808C96.9385 20.7881 96.2013 21.0366 95.4155 21.1237" fill="white"/>
<path d="M113.088 10.1311L112.478 12.8747H112.555C114.306 10.6895 116.604 9.59821 119.448 9.59821C123.283 9.59821 125.197 11.3633 125.197 14.896C125.197 15.1009 125.172 15.3597 125.12 15.6773C125.069 15.995 125.013 16.3204 124.949 16.6483C124.885 16.9787 124.821 17.2913 124.76 17.5808C124.696 17.8728 124.652 18.1085 124.626 18.2852L122.19 29.8338H116.781L119.18 18.2852C119.231 17.9804 119.3 17.5756 119.389 17.0658C119.479 16.5586 119.522 16.1641 119.522 15.8848C119.522 15.3008 119.249 14.8166 118.703 14.4374C118.158 14.0557 117.567 13.8662 116.932 13.8662C116.118 13.8662 115.401 14.025 114.779 14.3426C114.157 14.6603 113.625 15.0728 113.18 15.58C112.734 16.0872 112.368 16.6739 112.076 17.3323C111.785 17.9932 111.562 18.667 111.411 19.3535L109.202 29.8338H103.832L107.907 10.1285H113.085L113.088 10.1311Z" fill="white"/>
<path d="M140.466 10.1311L139.629 13.7509H135.781L133.764 23.5446C133.713 23.7496 133.675 23.9314 133.649 24.098C133.624 24.2645 133.611 24.3849 133.611 24.4592C133.611 24.8153 133.667 25.0868 133.782 25.2789C133.897 25.4685 134.043 25.6171 134.22 25.717C134.397 25.8195 134.594 25.8758 134.811 25.8887C135.026 25.9015 135.236 25.9066 135.438 25.9066C136.099 25.9066 136.746 25.8682 137.381 25.7913L136.467 29.9465C135.909 29.9978 135.349 30.0413 134.791 30.0797C134.233 30.1182 133.659 30.1361 133.078 30.1361C132.444 30.1361 131.814 30.0797 131.192 29.9645C130.57 29.8492 130.012 29.6468 129.515 29.3548C129.021 29.0627 128.627 28.6631 128.335 28.1533C128.044 27.646 127.91 26.9851 127.936 26.1704C127.936 25.9168 127.962 25.6299 128.013 25.3122C128.064 24.9946 128.128 24.659 128.202 24.3029L130.411 13.7457H126.869L127.706 10.1259H131.171L132.39 4.14158H137.798L136.58 10.1259H140.466V10.1311Z" fill="white"/>
<path d="M142.204 13.0105C142.787 12.1856 143.499 11.517 144.336 11.0098C145.173 10.5025 146.112 10.1387 147.154 9.92355C148.196 9.70836 149.273 9.60077 150.392 9.60077C151.28 9.60077 152.207 9.66481 153.172 9.79034C154.137 9.91843 155.025 10.1644 155.836 10.5333C156.648 10.9022 157.316 11.4222 157.835 12.096C158.355 12.7697 158.603 13.6663 158.578 14.7833C158.578 15.7235 158.437 16.8276 158.158 18.0982L156.407 26.0244C156.305 26.3805 156.236 26.8186 156.197 27.3386C156.159 27.8587 156.141 28.3096 156.141 28.6913C156.141 29.0217 156.205 29.4034 156.33 29.8338H150.922V27.8894C150.185 28.7271 149.284 29.3445 148.219 29.739C147.151 30.1336 146.048 30.3308 144.907 30.3308C143.839 30.3308 142.907 30.1899 142.106 29.9107C141.308 29.6314 140.64 29.2574 140.107 28.786C139.575 28.3147 139.181 27.769 138.927 27.1465C138.674 26.524 138.546 25.8707 138.546 25.1842C138.546 23.2782 139.198 21.7539 140.506 20.6114C141.814 19.4688 143.66 18.7566 146.048 18.4774C147.318 18.3262 148.421 18.211 149.36 18.1341C150.3 18.0573 151.08 17.9368 151.702 17.7729C152.324 17.6089 152.788 17.3681 153.092 17.0479C153.397 16.7302 153.548 16.2537 153.548 15.6184C153.548 15.1112 153.433 14.7039 153.205 14.399C152.977 14.0942 152.69 13.8533 152.347 13.674C152.004 13.4973 151.636 13.3743 151.244 13.3128C150.85 13.2488 150.476 13.218 150.121 13.218C149.156 13.218 148.293 13.4537 147.53 13.9225C146.767 14.3939 146.299 15.1214 146.122 16.1129H141.057C141.233 14.8678 141.615 13.8329 142.198 13.0054M150.272 21.1237C149.483 21.2134 148.697 21.2826 147.912 21.3338C147.402 21.385 146.908 21.467 146.427 21.5823C145.943 21.6976 145.518 21.8692 145.152 22.0972C144.784 22.3252 144.487 22.6377 144.256 23.0297C144.029 23.4242 143.913 23.9263 143.913 24.536C143.913 25.2738 144.21 25.8246 144.809 26.1935C145.406 26.5624 146.097 26.7469 146.885 26.7469C147.722 26.7469 148.426 26.6136 148.999 26.3472C149.57 26.0808 150.051 25.7375 150.446 25.3174C150.84 24.8972 151.15 24.4233 151.38 23.8879C151.608 23.355 151.8 22.8196 151.951 22.2868L152.483 20.3808C151.797 20.7881 151.06 21.0366 150.274 21.1237" fill="white"/>
<path d="M176.324 32.6185C175.766 33.6842 175.049 34.5629 174.174 35.2495C173.298 35.936 172.257 36.4432 171.051 36.7737C169.845 37.1042 168.43 37.2681 166.805 37.2681C165.814 37.2681 164.818 37.1529 163.815 36.9249C162.811 36.6969 161.91 36.328 161.112 35.8207C160.313 35.3109 159.666 34.6526 159.169 33.8379C158.675 33.0233 158.427 32.0216 158.427 30.8278H163.797C163.771 31.335 163.861 31.768 164.063 32.1241C164.265 32.4802 164.539 32.7722 164.882 33.0002C165.225 33.2282 165.612 33.3922 166.044 33.4946C166.477 33.5945 166.907 33.6483 167.339 33.6483C168.202 33.6483 168.919 33.4716 169.49 33.1155C170.06 32.7594 170.549 32.2778 170.956 31.6681C171.363 31.0584 171.704 30.3334 171.985 29.4957C172.264 28.658 172.543 27.769 172.822 26.8288L172.745 26.752C171.348 28.6067 169.546 29.5341 167.337 29.5341C166.17 29.5341 165.115 29.3445 164.176 28.9628C163.236 28.5811 162.443 28.0354 161.795 27.3233C161.148 26.6111 160.646 25.7683 160.29 24.7871C159.934 23.8085 159.758 22.7095 159.758 21.4901C159.758 20.0426 159.98 18.6132 160.423 17.2016C160.866 15.7926 161.514 14.522 162.366 13.3897C163.216 12.2599 164.258 11.3453 165.489 10.646C166.72 9.94661 168.123 9.59821 169.697 9.59821C171.069 9.59821 172.275 9.86463 173.314 10.3975C174.356 10.9303 175.154 11.8449 175.712 13.1412H175.789L176.398 10.1311H181.576L177.655 28.8065C177.325 30.2796 176.879 31.5502 176.321 32.6185M168.287 14.399C167.601 14.8832 167.03 15.4852 166.574 16.2102C166.116 16.9352 165.768 17.7345 165.527 18.6106C165.287 19.4867 165.166 20.3193 165.166 21.1083C165.166 21.6924 165.235 22.2458 165.376 22.7658C165.514 23.2859 165.737 23.7496 166.042 24.1569C166.346 24.5642 166.728 24.8819 167.183 25.1099C167.642 25.3379 168.187 25.4532 168.822 25.4532C169.787 25.4532 170.631 25.2175 171.353 24.7487C172.077 24.2773 172.674 23.6804 173.142 22.958C173.611 22.233 173.966 21.4286 174.21 20.5371C174.45 19.6481 174.571 18.7848 174.571 17.9445C174.571 16.6995 174.253 15.6773 173.618 14.8755C172.984 14.0762 172.006 13.674 170.685 13.674C169.771 13.674 168.973 13.9148 168.287 14.399Z" fill="white"/>
<path d="M186.048 21.6412V22.4405C186.048 23.583 186.404 24.5104 187.115 25.2226C187.824 25.9348 188.917 26.2883 190.389 26.2883C190.922 26.2883 191.398 26.2063 191.817 26.0398C192.237 25.8758 192.603 25.6658 192.921 25.4122C193.238 25.1585 193.517 24.8665 193.758 24.536C193.998 24.2056 194.221 23.8879 194.423 23.583H199.832C199.399 24.7 198.892 25.6786 198.309 26.5189C197.725 27.3566 197.026 28.0636 196.215 28.6349C195.401 29.2062 194.456 29.6314 193.379 29.9107C192.299 30.1899 191.05 30.3308 189.629 30.3308C188.308 30.3308 187.11 30.154 186.03 29.798C184.95 29.4419 184.031 28.9013 183.268 28.1789C182.505 27.4539 181.917 26.5598 181.497 25.4916C181.077 24.4259 180.87 23.1808 180.87 21.7565C180.87 20.181 181.123 18.6644 181.633 17.2016C182.139 15.7414 182.856 14.4451 183.785 13.3154C184.712 12.1856 185.848 11.2839 187.192 10.6101C188.538 9.93636 190.049 9.60077 191.723 9.60077C193.095 9.60077 194.344 9.77753 195.473 10.1336C196.601 10.4897 197.566 11.0302 198.368 11.7527C199.166 12.4777 199.788 13.3794 200.234 14.4579C200.676 15.539 200.899 16.7892 200.899 18.211C200.899 19.1768 200.797 20.2066 200.594 21.2979H186.086C186.061 21.426 186.048 21.5387 186.048 21.6412ZM195.549 16.3613C195.46 15.8669 195.288 15.416 195.035 15.0087C194.781 14.6014 194.413 14.2786 193.932 14.0378C193.448 13.797 192.813 13.6766 192.027 13.6766C191.241 13.6766 190.594 13.7919 190.01 14.0199C189.427 14.2479 188.917 14.5527 188.487 14.9344C188.055 15.3161 187.694 15.7593 187.402 16.2691C187.11 16.7789 186.862 17.3118 186.66 17.8702H195.685C195.685 17.363 195.642 16.8609 195.552 16.3639" fill="white"/>
<path d="M214.778 29.2497L214.54 30.049H202.484L202.786 29.2497C203.996 29.2216 204.795 29.1191 205.184 28.9474C205.819 28.7041 206.287 28.3634 206.589 27.9304C207.065 27.2541 207.554 26.0424 208.058 24.2978L213.157 6.61116C213.59 5.14069 213.805 4.03143 213.805 3.28083C213.805 2.90681 213.71 2.58914 213.523 2.3304C213.336 2.07166 213.052 1.8744 212.668 1.73607C212.287 1.60029 211.542 1.53112 210.434 1.53112L210.692 0.731842H222.014L221.776 1.53112C220.854 1.51831 220.171 1.61822 219.723 1.83341C219.075 2.1229 218.581 2.53278 218.243 3.06564C217.905 3.59849 217.468 4.78204 216.935 6.61116L211.86 24.2978C211.399 25.9271 211.168 26.9646 211.168 27.4104C211.168 27.7716 211.258 28.0764 211.44 28.3301C211.619 28.5837 211.908 28.7784 212.305 28.9141C212.702 29.0525 213.526 29.1626 214.778 29.2497Z" fill="white"/>
<path d="M226.596 10.482L223.721 20.3193C226.414 16.2973 228.477 13.6535 229.91 12.3829C231.344 11.1148 232.723 10.4795 234.047 10.4795C234.766 10.4795 235.36 10.7177 235.828 11.1942C236.297 11.6707 236.53 12.2907 236.53 13.0541C236.53 13.92 236.32 15.0728 235.902 16.5125L233.266 25.6146C232.964 26.6675 232.813 27.3079 232.813 27.5385C232.813 27.7408 232.869 27.9099 232.987 28.0457C233.102 28.184 233.225 28.2506 233.356 28.2506C233.527 28.2506 233.737 28.1584 233.983 27.9688C234.746 27.3643 235.583 26.442 236.489 25.2021L237.159 25.612C235.821 27.5308 234.551 28.8988 233.358 29.7211C232.524 30.2821 231.774 30.5639 231.111 30.5639C230.578 30.5639 230.153 30.4025 229.836 30.0772C229.519 29.7519 229.36 29.3163 229.36 28.7681C229.36 28.0764 229.603 26.8878 230.095 25.1995L232.601 16.5074C232.918 15.4263 233.077 14.5835 233.077 13.9763C233.077 13.6894 232.982 13.4537 232.795 13.2744C232.608 13.0951 232.378 13.0054 232.104 13.0054C231.7 13.0054 231.218 13.1796 230.655 13.5254C229.59 14.1736 228.479 15.2444 227.328 16.7354C226.176 18.2263 224.957 20.1323 223.675 22.4533C222.997 23.6778 222.436 25.0202 221.991 26.4753L220.911 30.0439H217.67L221.602 16.5074C222.062 14.8781 222.293 13.8995 222.293 13.5664C222.293 13.2334 222.167 12.9721 221.914 12.7339C221.663 12.4956 221.348 12.3778 220.975 12.3778C220.8 12.3778 220.498 12.4059 220.066 12.4649L219.244 12.5955L219.114 11.8167L226.588 10.4769L226.596 10.482Z" fill="white"/>
<path d="M254.273 25.3353C252.776 27.1362 251.263 28.4607 249.735 29.3035C248.209 30.1464 246.594 30.5691 244.895 30.5691C242.849 30.5691 241.255 29.9927 240.111 28.8398C238.966 27.687 238.393 26.1371 238.393 24.1902C238.393 21.9845 239.007 19.8146 240.241 17.6832C241.472 15.5493 243.128 13.8175 245.209 12.4828C247.29 11.1507 249.333 10.482 251.335 10.482C252.904 10.482 254.079 10.8099 254.857 11.4658C255.635 12.1216 256.024 12.926 256.024 13.8764C256.024 14.7705 255.75 15.5339 255.202 16.1692C254.798 16.6585 254.301 16.9044 253.713 16.9044C253.265 16.9044 252.896 16.761 252.599 16.4715C252.305 16.1846 252.156 15.8234 252.156 15.3904C252.156 15.1163 252.21 14.8653 252.318 14.6347C252.425 14.4041 252.648 14.1275 252.988 13.8021C253.326 13.4768 253.531 13.2436 253.605 13.1002C253.677 12.9567 253.713 12.8056 253.713 12.6467C253.713 12.3444 253.574 12.0908 253.303 11.891C252.886 11.6041 252.295 11.4581 251.532 11.4581C250.119 11.4581 248.724 11.9551 247.342 12.949C245.959 13.943 244.777 15.3571 243.799 17.1862C242.617 19.4073 242.028 21.6258 242.028 23.8443C242.028 25.3148 242.445 26.4779 243.279 27.3361C244.114 28.1943 245.253 28.6221 246.694 28.6221C247.802 28.6221 248.9 28.3454 249.988 27.7895C251.076 27.2336 252.295 26.2294 253.651 24.7717L254.278 25.3353H254.273Z" fill="white"/>
<path d="M261.292 28.4607C260.073 29.014 259.513 29.5725 258.962 30.7919C258.873 30.9918 258.591 30.9918 258.502 30.7919C257.949 29.5725 257.391 29.0115 256.172 28.4607C255.973 28.371 255.973 28.0892 256.172 27.9996C257.391 27.4462 257.951 26.8878 258.502 25.6683C258.591 25.4685 258.873 25.4685 258.962 25.6683C259.515 26.8878 260.073 27.4488 261.292 27.9996C261.491 28.0892 261.491 28.371 261.292 28.4607Z" fill="white"/>
</svg>
